<?xml version="1.0" ?><svg height="16" shape-rendering="crispEdges" version="1.1" width="16" xmlns="http://www.w3.org/2000/svg"><rect fill="#FB7B4E" height="1" width="1" x="2" y="0"/><rect fill="#FB834E" height="1" width="1" x="3" y="0"/><rect fill="#FC8C4E" height="1" width="1" x="4" y="0"/><rect fill="#FC944E" height="1" width="1" x="5" y="0"/><rect fill="#FD9B4E" height="1" width="1" x="6" y="0"/><rect fill="#FEA44E" height="1" width="1" x="7" y="0"/><rect fill="#FEAC4E" height="1" width="1" x="8" y="0"/><rect fill="#FFB04F" height="1" width="1" x="9" y="0"/><rect fill="#FFB04F" height="1" width="1" x="10" y="0"/><rect fill="#FFB04F" height="1" width="1" x="11" y="0"/><rect fill="#FFB04F" height="1" width="1" x="12" y="0"/><rect fill="#FFB04F" height="1" width="1" x="13" y="0"/><rect fill="#F96B4D" height="1" width="1" x="1" y="1"/><rect fill="#FA592D" height="1" width="1" x="2" y="1"/><rect fill="#FB632D" height="1" width="1" x="3" y="1"/><rect fill="#FB6D2D" height="1" width="1" x="4" y="1"/><rect fill="#FC772D" height="1" width="1" x="5" y="1"/><rect fill="#FC812D" height="1" width="1" x="6" y="1"/><rect fill="#FD8A2D" height="1" width="1" x="7" y="1"/><rect fill="#FFFFFF" height="1" width="1" x="8" y="1"/><rect fill="#FFFFFF" height="1" width="1" x="9" y="1"/><rect fill="#FFA22E" height="1" width="1" x="10" y="1"/><rect fill="#FFA22E" height="1" width="1" x="11" y="1"/><rect fill="#FFA22E" height="1" width="1" x="12" y="1"/><rect fill="#FFA22E" height="1" width="1" x="13" y="1"/><rect fill="#FFA22E" height="1" width="1" x="14" y="1"/><rect fill="#F95C4D" height="1" width="1" x="0" y="2"/><rect fill="#F9462C" height="1" width="1" x="1" y="2"/><rect fill="#F9502C" height="1" width="1" x="2" y="2"/><rect fill="#FA5A2D" height="1" width="1" x="3" y="2"/><rect fill="#FB642D" height="1" width="1" x="4" y="2"/><rect fill="#FB6E2D" height="1" width="1" x="5" y="2"/><rect fill="#FC782D" height="1" width="1" x="6" y="2"/><rect fill="#FD822D" height="1" width="1" x="7" y="2"/><rect fill="#FFFFFF" height="1" width="1" x="8" y="2"/><rect fill="#FE952D" height="1" width="1" x="9" y="2"/><rect fill="#FFFFFF" height="1" width="1" x="10" y="2"/><rect fill="#FFFFFF" height="1" width="1" x="11" y="2"/><rect fill="#FFA22E" height="1" width="1" x="12" y="2"/><rect fill="#FFA22E" height="1" width="1" x="13" y="2"/><rect fill="#FFA22E" height="1" width="1" x="14" y="2"/><rect fill="#D68827" height="1" width="1" x="15" y="2"/><rect fill="#F9544D" height="1" width="1" x="0" y="3"/><rect fill="#F83E2C" height="1" width="1" x="1" y="3"/><rect fill="#F9482C" height="1" width="1" x="2" y="3"/><rect fill="#F9512C" height="1" width="1" x="3" y="3"/><rect fill="#FA5B2D" height="1" width="1" x="4" y="3"/><rect fill="#FB652D" height="1" width="1" x="5" y="3"/><rect fill="#FB6F2D" height="1" width="1" x="6" y="3"/><rect fill="#FFFFFF" height="1" width="1" x="7" y="3"/><rect fill="#FD832D" height="1" width="1" x="8" y="3"/><rect fill="#FD8D2D" height="1" width="1" x="9" y="3"/><rect fill="#FFFFFF" height="1" width="1" x="10" y="3"/><rect fill="#FFFFFF" height="1" width="1" x="11" y="3"/><rect fill="#FFA22E" height="1" width="1" x="12" y="3"/><rect fill="#FFA22E" height="1" width="1" x="13" y="3"/><rect fill="#FFA22E" height="1" width="1" x="14" y="3"/><rect fill="#D68827" height="1" width="1" x="15" y="3"/><rect fill="#F84D4D" height="1" width="1" x="0" y="4"/><rect fill="#F8352C" height="1" width="1" x="1" y="4"/><rect fill="#F83F2C" height="1" width="1" x="2" y="4"/><rect fill="#F9492C" height="1" width="1" x="3" y="4"/><rect fill="#FA532D" height="1" width="1" x="4" y="4"/><rect fill="#FA5C2D" height="1" width="1" x="5" y="4"/><rect fill="#FB662D" height="1" width="1" x="6" y="4"/><rect fill="#FFFFFF" height="1" width="1" x="7" y="4"/><rect fill="#FC7A2D" height="1" width="1" x="8" y="4"/><rect fill="#FD842D" height="1" width="1" x="9" y="4"/><rect fill="#FD8E2D" height="1" width="1" x="10" y="4"/><rect fill="#FE982D" height="1" width="1" x="11" y="4"/><rect fill="#FFA22E" height="1" width="1" x="12" y="4"/><rect fill="#FFA22E" height="1" width="1" x="13" y="4"/><rect fill="#FFA22E" height="1" width="1" x="14" y="4"/><rect fill="#D68827" height="1" width="1" x="15" y="4"/><rect fill="#F8454D" height="1" width="1" x="0" y="5"/><rect fill="#F72C2C" height="1" width="1" x="1" y="5"/><rect fill="#FFFFFF" height="1" width="1" x="2" y="5"/><rect fill="#FFFFFF" height="1" width="1" x="3" y="5"/><rect fill="#F94A2C" height="1" width="1" x="4" y="5"/><rect fill="#FFFFFF" height="1" width="1" x="5" y="5"/><rect fill="#FFFFFF" height="1" width="1" x="6" y="5"/><rect fill="#FFFFFF" height="1" width="1" x="7" y="5"/><rect fill="#FFFFFF" height="1" width="1" x="8" y="5"/><rect fill="#FFFFFF" height="1" width="1" x="9" y="5"/><rect fill="#FFFFFF" height="1" width="1" x="10" y="5"/><rect fill="#FD8F2D" height="1" width="1" x="11" y="5"/><rect fill="#FFFFFF" height="1" width="1" x="12" y="5"/><rect fill="#FFFFFF" height="1" width="1" x="13" y="5"/><rect fill="#FFA22E" height="1" width="1" x="14" y="5"/><rect fill="#D68827" height="1" width="1" x="15" y="5"/><rect fill="#F73E4D" height="1" width="1" x="0" y="6"/><rect fill="#FFFFFF" height="1" width="1" x="1" y="6"/><rect fill="#FFFFFF" height="1" width="1" x="2" y="6"/><rect fill="#FFFFFF" height="1" width="1" x="3" y="6"/><rect fill="#FFFFFF" height="1" width="1" x="4" y="6"/><rect fill="#FFFFFF" height="1" width="1" x="5" y="6"/><rect fill="#FFFFFF" height="1" width="1" x="6" y="6"/><rect fill="#FFFFFF" height="1" width="1" x="7" y="6"/><rect fill="#FFFFFF" height="1" width="1" x="8" y="6"/><rect fill="#FFFFFF" height="1" width="1" x="9" y="6"/><rect fill="#FFFFFF" height="1" width="1" x="10" y="6"/><rect fill="#FFFFFF" height="1" width="1" x="11" y="6"/><rect fill="#FFFFFF" height="1" width="1" x="12" y="6"/><rect fill="#FFFFFF" height="1" width="1" x="13" y="6"/><rect fill="#FFFFFF" height="1" width="1" x="14" y="6"/><rect fill="#D68827" height="1" width="1" x="15" y="6"/><rect fill="#F6374D" height="1" width="1" x="0" y="7"/><rect fill="#FFFFFF" height="1" width="1" x="1" y="7"/><rect fill="#FFFFFF" height="1" width="1" x="2" y="7"/><rect fill="#FFFFFF" height="1" width="1" x="3" y="7"/><rect fill="#FFFFFF" height="1" width="1" x="4" y="7"/><rect fill="#F9422C" height="1" width="1" x="5" y="7"/><rect fill="#F94C2C" height="1" width="1" x="6" y="7"/><rect fill="#FFFFFF" height="1" width="1" x="7" y="7"/><rect fill="#FFFFFF" height="1" width="1" x="8" y="7"/><rect fill="#FB6A2D" height="1" width="1" x="9" y="7"/><rect fill="#FC732D" height="1" width="1" x="10" y="7"/><rect fill="#FFFFFF" height="1" width="1" x="11" y="7"/><rect fill="#FFFFFF" height="1" width="1" x="12" y="7"/><rect fill="#FFFFFF" height="1" width="1" x="13" y="7"/><rect fill="#FFFFFF" height="1" width="1" x="14" y="7"/><rect fill="#D68827" height="1" width="1" x="15" y="7"/><rect fill="#F62F4D" height="1" width="1" x="0" y="8"/><rect fill="#FFFFFF" height="1" width="1" x="1" y="8"/><rect fill="#FFFFFF" height="1" width="1" x="2" y="8"/><rect fill="#FFFFFF" height="1" width="1" x="3" y="8"/><rect fill="#FFFFFF" height="1" width="1" x="4" y="8"/><rect fill="#F8392C" height="1" width="1" x="5" y="8"/><rect fill="#F9432C" height="1" width="1" x="6" y="8"/><rect fill="#FFFFFF" height="1" width="1" x="7" y="8"/><rect fill="#FFFFFF" height="1" width="1" x="8" y="8"/><rect fill="#FA612D" height="1" width="1" x="9" y="8"/><rect fill="#FB6B2D" height="1" width="1" x="10" y="8"/><rect fill="#FFFFFF" height="1" width="1" x="11" y="8"/><rect fill="#FFFFFF" height="1" width="1" x="12" y="8"/><rect fill="#FFFFFF" height="1" width="1" x="13" y="8"/><rect fill="#FFFFFF" height="1" width="1" x="14" y="8"/><rect fill="#D68326" height="1" width="1" x="15" y="8"/><rect fill="#F62B4D" height="1" width="1" x="0" y="9"/><rect fill="#F5092C" height="1" width="1" x="1" y="9"/><rect fill="#FFFFFF" height="1" width="1" x="2" y="9"/><rect fill="#FFFFFF" height="1" width="1" x="3" y="9"/><rect fill="#FFFFFF" height="1" width="1" x="4" y="9"/><rect fill="#FFFFFF" height="1" width="1" x="5" y="9"/><rect fill="#FFFFFF" height="1" width="1" x="6" y="9"/><rect fill="#FFFFFF" height="1" width="1" x="7" y="9"/><rect fill="#FFFFFF" height="1" width="1" x="8" y="9"/><rect fill="#FFFFFF" height="1" width="1" x="9" y="9"/><rect fill="#FFFFFF" height="1" width="1" x="10" y="9"/><rect fill="#FFFFFF" height="1" width="1" x="11" y="9"/><rect fill="#FFFFFF" height="1" width="1" x="12" y="9"/><rect fill="#FFFFFF" height="1" width="1" x="13" y="9"/><rect fill="#FD892D" height="1" width="1" x="14" y="9"/><rect fill="#D67C26" height="1" width="1" x="15" y="9"/><rect fill="#F62B4D" height="1" width="1" x="0" y="10"/><rect fill="#F5032C" height="1" width="1" x="1" y="10"/><rect fill="#FFFFFF" height="1" width="1" x="2" y="10"/><rect fill="#FFFFFF" height="1" width="1" x="3" y="10"/><rect fill="#FFFFFF" height="1" width="1" x="4" y="10"/><rect fill="#F7282C" height="1" width="1" x="5" y="10"/><rect fill="#FFFFFF" height="1" width="1" x="6" y="10"/><rect fill="#FFFFFF" height="1" width="1" x="7" y="10"/><rect fill="#FFFFFF" height="1" width="1" x="8" y="10"/><rect fill="#FFFFFF" height="1" width="1" x="9" y="10"/><rect fill="#FA592D" height="1" width="1" x="10" y="10"/><rect fill="#FFFFFF" height="1" width="1" x="11" y="10"/><rect fill="#FFFFFF" height="1" width="1" x="12" y="10"/><rect fill="#FFFFFF" height="1" width="1" x="13" y="10"/><rect fill="#FC812D" height="1" width="1" x="14" y="10"/><rect fill="#D57426" height="1" width="1" x="15" y="10"/><rect fill="#F62B4D" height="1" width="1" x="0" y="11"/><rect fill="#F5032C" height="1" width="1" x="1" y="11"/><rect fill="#F5032C" height="1" width="1" x="2" y="11"/><rect fill="#FFFFFF" height="1" width="1" x="3" y="11"/><rect fill="#FFFFFF" height="1" width="1" x="4" y="11"/><rect fill="#FFFFFF" height="1" width="1" x="5" y="11"/><rect fill="#F7292C" height="1" width="1" x="6" y="11"/><rect fill="#F8332C" height="1" width="1" x="7" y="11"/><rect fill="#F83D2C" height="1" width="1" x="8" y="11"/><rect fill="#F9462C" height="1" width="1" x="9" y="11"/><rect fill="#FFFFFF" height="1" width="1" x="10" y="11"/><rect fill="#FFFFFF" height="1" width="1" x="11" y="11"/><rect fill="#FFFFFF" height="1" width="1" x="12" y="11"/><rect fill="#FB6E2D" height="1" width="1" x="13" y="11"/><rect fill="#FC782D" height="1" width="1" x="14" y="11"/><rect fill="#D56E26" height="1" width="1" x="15" y="11"/><rect fill="#F62B4D" height="1" width="1" x="0" y="12"/><rect fill="#F5032C" height="1" width="1" x="1" y="12"/><rect fill="#F5032C" height="1" width="1" x="2" y="12"/><rect fill="#F5032C" height="1" width="1" x="3" y="12"/><rect fill="#F50C2C" height="1" width="1" x="4" y="12"/><rect fill="#FFFFFF" height="1" width="1" x="5" y="12"/><rect fill="#FFFFFF" height="1" width="1" x="6" y="12"/><rect fill="#FFFFFF" height="1" width="1" x="7" y="12"/><rect fill="#FFFFFF" height="1" width="1" x="8" y="12"/><rect fill="#FFFFFF" height="1" width="1" x="9" y="12"/><rect fill="#FFFFFF" height="1" width="1" x="10" y="12"/><rect fill="#F9512C" height="1" width="1" x="11" y="12"/><rect fill="#FA5B2D" height="1" width="1" x="12" y="12"/><rect fill="#FB652D" height="1" width="1" x="13" y="12"/><rect fill="#FB6F2D" height="1" width="1" x="14" y="12"/><rect fill="#D46626" height="1" width="1" x="15" y="12"/><rect fill="#F62B4D" height="1" width="1" x="0" y="13"/><rect fill="#F5032C" height="1" width="1" x="1" y="13"/><rect fill="#F5032C" height="1" width="1" x="2" y="13"/><rect fill="#F5032C" height="1" width="1" x="3" y="13"/><rect fill="#F5042C" height="1" width="1" x="4" y="13"/><rect fill="#F50D2C" height="1" width="1" x="5" y="13"/><rect fill="#F6172C" height="1" width="1" x="6" y="13"/><rect fill="#F6212C" height="1" width="1" x="7" y="13"/><rect fill="#F72B2C" height="1" width="1" x="8" y="13"/><rect fill="#F8352C" height="1" width="1" x="9" y="13"/><rect fill="#F83F2C" height="1" width="1" x="10" y="13"/><rect fill="#F9492C" height="1" width="1" x="11" y="13"/><rect fill="#FA532D" height="1" width="1" x="12" y="13"/><rect fill="#FA5C2D" height="1" width="1" x="13" y="13"/><rect fill="#FB662D" height="1" width="1" x="14" y="13"/><rect fill="#D35E26" height="1" width="1" x="15" y="13"/><rect fill="#F5032C" height="1" width="1" x="1" y="14"/><rect fill="#F5032C" height="1" width="1" x="2" y="14"/><rect fill="#F5032C" height="1" width="1" x="3" y="14"/><rect fill="#F5032C" height="1" width="1" x="4" y="14"/><rect fill="#F5052C" height="1" width="1" x="5" y="14"/><rect fill="#F50F2C" height="1" width="1" x="6" y="14"/><rect fill="#F6182C" height="1" width="1" x="7" y="14"/><rect fill="#F7222C" height="1" width="1" x="8" y="14"/><rect fill="#F72C2C" height="1" width="1" x="9" y="14"/><rect fill="#F8362C" height="1" width="1" x="10" y="14"/><rect fill="#F8402C" height="1" width="1" x="11" y="14"/><rect fill="#F94A2C" height="1" width="1" x="12" y="14"/><rect fill="#FA542D" height="1" width="1" x="13" y="14"/><rect fill="#D24F26" height="1" width="1" x="14" y="14"/><rect fill="#CE0325" height="1" width="1" x="2" y="15"/><rect fill="#CE0325" height="1" width="1" x="3" y="15"/><rect fill="#CE0325" height="1" width="1" x="4" y="15"/><rect fill="#CE0325" height="1" width="1" x="5" y="15"/><rect fill="#CE0625" height="1" width="1" x="6" y="15"/><rect fill="#CE0E25" height="1" width="1" x="7" y="15"/><rect fill="#CF1625" height="1" width="1" x="8" y="15"/><rect fill="#D01E25" height="1" width="1" x="9" y="15"/><rect fill="#D02625" height="1" width="1" x="10" y="15"/><rect fill="#D12F25" height="1" width="1" x="11" y="15"/><rect fill="#D13725" height="1" width="1" x="12" y="15"/><rect fill="#D13F25" height="1" width="1" x="13" y="15"/></svg>